<svg xmlns="http://www.w3.org/2000/svg" data-name="Layer 1" viewBox="0 0 100 125" x="0px" y="0px"><title>Artboard 41 copy 46</title><path d="M75.78,43.15,33.33,21.36A7.7,7.7,0,0,0,22.11,28.2V71.8a7.73,7.73,0,0,0,7.7,7.7,7.75,7.75,0,0,0,3.52-.86L75.78,56.85a7.7,7.7,0,0,0,0-13.7Zm-1.37,11L32,76a4.7,4.7,0,0,1-6.84-4.17V28.2a4.65,4.65,0,0,1,2.25-4,4.72,4.72,0,0,1,2.45-.7A4.67,4.67,0,0,1,32,24L74.41,45.82a4.7,4.7,0,0,1,0,8.36Z"/><text x="0" y="115" fill="#000000" font-size="5px" font-weight="bold" font-family="'Helvetica Neue', Helvetica, Arial-Unicode, Arial, Sans-serif">Created by shwepes</text><text x="0" y="120" fill="#000000" font-size="5px" font-weight="bold" font-family="'Helvetica Neue', Helvetica, Arial-Unicode, Arial, Sans-serif">from the Noun Project</text></svg>