<svg xmlns="http://www.w3.org/2000/svg" data-name="Layer 1" viewBox="0 0 100 125" x="0px" y="0px"><title>Artboard 41 copy 48</title><path d="M68.59,20.15H33.48A12,12,0,0,0,21.54,32.09V67.21A12,12,0,0,0,33.48,79.15H68.59a12,12,0,0,0,12-11.94V32.09A12,12,0,0,0,68.59,20.15Zm9,47.06a9,9,0,0,1-9,8.94H33.48a9,9,0,0,1-8.94-8.94V32.09a9,9,0,0,1,8.94-8.94H68.59a9,9,0,0,1,9,8.94Z"/><text x="0" y="115" fill="#000000" font-size="5px" font-weight="bold" font-family="'Helvetica Neue', Helvetica, Arial-Unicode, Arial, Sans-serif">Created by shwepes</text><text x="0" y="120" fill="#000000" font-size="5px" font-weight="bold" font-family="'Helvetica Neue', Helvetica, Arial-Unicode, Arial, Sans-serif">from the Noun Project</text></svg>