<svg xmlns="http://www.w3.org/2000/svg" xmlns:xlink="http://www.w3.org/1999/xlink" version="1.1" x="0px" y="0px" viewBox="0 0 50 62.5" enable-background="new 0 0 50 50" xml:space="preserve"><g><path fill="none" stroke="#000000" stroke-width="2" stroke-miterlimit="10" d="M37.888,9.166h-5c-0.551,0-1,0.45-1,1v26   c0,0.549,0.449,1,1,1h5c0.55,0,1-0.451,1-1v-26C38.888,9.616,38.438,9.166,37.888,9.166z"/><path fill="none" stroke="#000000" stroke-width="2" stroke-miterlimit="10" d="M12.582,9.814   c-0.414-0.361-0.694-0.207-0.694,0.344V36.52c0,0.551,0.278,0.705,0.694,0.344l14.763-12.881c0.415-0.36,0.43-0.951,0.015-1.312   L12.582,9.814z"/></g><text x="0" y="65" fill="#000000" font-size="5px" font-weight="bold" font-family="'Helvetica Neue', Helvetica, Arial-Unicode, Arial, Sans-serif">Created by Luboš Volkov</text><text x="0" y="70" fill="#000000" font-size="5px" font-weight="bold" font-family="'Helvetica Neue', Helvetica, Arial-Unicode, Arial, Sans-serif">from the Noun Project</text></svg>