<svg xmlns="http://www.w3.org/2000/svg" data-name="Layer 1" viewBox="0 0 100 125" x="0px" y="0px"><title>Artboard 41 copy 47</title><path d="M36,20.5A10.14,10.14,0,0,0,25.82,30.63V69.37a10.13,10.13,0,0,0,20.26,0V30.63A10.14,10.14,0,0,0,36,20.5Zm7.13,48.87a7.13,7.13,0,1,1-14.26,0V30.63a7.13,7.13,0,1,1,14.26,0Z"/><path d="M64.05,20.5A10.14,10.14,0,0,0,53.92,30.63V69.37a10.13,10.13,0,1,0,20.26,0V30.63A10.14,10.14,0,0,0,64.05,20.5Zm7.13,48.87a7.13,7.13,0,0,1-14.26,0V30.63a7.13,7.13,0,0,1,14.26,0Z"/><text x="0" y="115" fill="#000000" font-size="5px" font-weight="bold" font-family="'Helvetica Neue', Helvetica, Arial-Unicode, Arial, Sans-serif">Created by shwepes</text><text x="0" y="120" fill="#000000" font-size="5px" font-weight="bold" font-family="'Helvetica Neue', Helvetica, Arial-Unicode, Arial, Sans-serif">from the Noun Project</text></svg>